# xmcd CD database file
#
# Track frame offsets:
#	150
#	8648
#	27670
#	62796
#	88998
#	110417
#	124792
#	155426
#	178754
#	192754
#	199854
#	218414
#	230013
#	236702
#	255687
#
# Disc length: 3632 seconds
#
# Revision: 0
# Processed by: cddbd v1.5.2PL0 Copyright (c) Steve Scherf et al.
# Submitted via: CDex 1.70beta2
#
DISCID=d10e2e0f
DTITLE=Gebhard Ullmann - Tá Lam
DYEAR=1998
DGENRE=Jazz
TTITLE0=Reg Alien
TTITLE1=D. Nee No
TTITLE2=Tá Lam
TTITLE3=Think Tank
TTITLE4=Heaven No. 2.4
TTITLE5=Seven Rests for Woodwind Ensemble
TTITLE6=Mack the Knife
TTITLE7=Oberschöneweide
TTITLE8=Oergarden's What?
TTITLE9=Mala Dr'ôle
TTITLE10=N.B. Eleven
TTITLE11=Heaven No. 2.4 (Again)
TTITLE12=Red Prixx (Alegretto)
TTITLE13=Black Cat
TTITLE14=Basement Research
EXTD=YEAR: 1998
EXTT0=
EXTT1=
EXTT2=
EXTT3=
EXTT4=
EXTT5=
EXTT6=
EXTT7=
EXTT8=
EXTT9=
EXTT10=
EXTT11=
EXTT12=
EXTT13=
EXTT14=
PLAYORDER=
